<?xml version="1.0" encoding="UTF-8"?>
<svg xmlns="http://www.w3.org/2000/svg" xmlns:xlink="http://www.w3.org/1999/xlink" width="595.28pt" height="482.16pt" viewBox="0 0 595.28 482.16" version="1.1">
<g id="surface1">
<path style=" stroke:none;fill-rule:nonzero;fill:rgb(9.799194%,8.999634%,10.598755%);fill-opacity:1;" d="M 1168.050781 268.679688 C 1168.050781 191.277344 1145.28125 132.0625 1090.640625 77.425781 C 1036 22.765625 972.230469 -0.00390625 899.386719 -0.00390625 C 826.488281 -0.00390625 762.761719 22.765625 712.640625 77.425781 C 676.21875 113.847656 648.910156 159.390625 639.789063 204.929688 L 644.328125 173.066406 C 644.328125 113.847656 626.136719 72.863281 585.136719 40.980469 C 553.246094 13.675781 507.710938 -0.00390625 453.074219 -0.00390625 L 179.828125 -0.00390625 L 179.828125 273.242188 C 179.828125 318.777344 175.265625 350.671875 166.152344 373.4375 C 152.5 400.769531 125.191406 418.980469 84.1875 418.980469 C 47.765625 418.980469 20.433594 400.769531 6.757813 373.4375 C -2.332031 350.671875 -6.894531 318.777344 -6.894531 273.242188 L -6.894531 -0.00390625 L -143.519531 -0.00390625 L -143.519531 355.230469 L -138.960938 391.652344 C -129.867188 423.535156 -111.628906 455.40625 -88.859375 478.171875 C -66.085938 496.386719 -43.316406 510.0625 -6.894531 523.71875 C 20.433594 532.832031 52.296875 532.832031 84.1875 532.832031 C 166.152344 532.832031 220.8125 514.617188 261.8125 478.171875 C 284.585938 455.40625 302.769531 423.535156 307.355469 391.652344 C 316.445313 368.882813 321.007813 336.992188 321.007813 296.011719 L 321.007813 109.285156 L 421.203125 109.285156 C 471.277344 109.285156 494.054688 132.0625 494.054688 177.597656 C 494.054688 223.144531 471.277344 245.910156 421.203125 245.910156 L 334.660156 245.910156 L 516.824219 532.832031 L 689.871094 532.832031 L 548.707031 318.777344 C 594.253906 305.125 626.136719 273.242188 639.789063 223.144531 C 635.234375 236.820313 630.675781 250.472656 630.675781 268.679688 C 630.675781 327.902344 653.441406 387.089844 694.449219 432.636719 C 730.871094 482.734375 780.953125 514.617188 835.605469 528.269531 L 922.15625 396.207031 L 899.386719 396.207031 C 867.496094 396.207031 835.605469 387.089844 808.300781 359.761719 C 785.527344 332.453125 771.851563 305.125 771.851563 268.679688 C 771.851563 232.257813 785.527344 200.375 808.300781 173.066406 C 835.605469 150.292969 867.496094 136.617188 899.386719 136.617188 C 935.808594 136.617188 967.691406 150.292969 990.46875 173.066406 C 1017.769531 200.375 1031.421875 232.257813 1031.421875 268.679688 C 1031.421875 296.011719 1026.890625 318.777344 1008.648438 341.554688 C 995 359.761719 976.792969 373.4375 954.015625 387.089844 L 954.015625 532.832031 C 1013.238281 519.15625 1067.871094 487.292969 1104.320313 441.75 C 1149.851563 387.089844 1168.050781 332.453125 1168.050781 268.679688 "/>
</g>
</svg>
